<?xml version="1.0" encoding="UTF-8" standalone="no"?>
<svg width="655px" height="655px" viewBox="0 0 655 655" version="1.1" xmlns="http://www.w3.org/2000/svg" xmlns:xlink="http://www.w3.org/1999/xlink">
    <!-- Generator: Sketch 3.8.3 (29802) - http://www.bohemiancoding.com/sketch -->
    <title>Artboard 1</title>
    <desc>Created with Sketch.</desc>
    <defs></defs>
    <g id="Page-2" stroke="none" stroke-width="1" fill="none" fill-rule="evenodd">
        <g id="Artboard-1">
            <g id="Group" transform="translate(13.000000, 8.000000)">
                <rect id="Rectangle-8" stroke="#0082ED" stroke-width="8" fill="#FFFFFF" x="307" y="41" width="16" height="40"></rect>
                <rect id="Rectangle-2" stroke="#0082ED" stroke-width="8" fill="#0082ED" x="215" y="243" width="200" height="45"></rect>
                <rect id="Rectangle-2" stroke="#0082ED" stroke-width="10" fill="#FFFFFF" x="228" y="193" width="175" height="50"></rect>
                <path d="M259,193 L259,243" id="Line" stroke="#0082ED" stroke-width="10"></path>
                <path d="M372,193 L372,243" id="Line" stroke="#0082ED" stroke-width="10"></path>
                <path d="M335,193 L335,243" id="Line" stroke="#0082ED" stroke-width="10"></path>
                <path d="M296,193 L296,243" id="Line" stroke="#0082ED" stroke-width="10"></path>
                <path d="M315,0 L315,40" id="Line" stroke="#0082ED" stroke-width="8"></path>
                <path d="M235,192 L315.000004,192 L393.003801,192 C394.106271,192 395,191.114047 395,190.008751 C395,190.008751 395,169.50199 395,167.134355 C395,111.163707 359.18278,82 315,82 C270.81722,82 235,112.545775 235,167.134357 C235,170.421228 235,192 235,192 Z" id="Oval-1" stroke="#0082ED" stroke-width="8" fill="#0082ED"></path>
                <path d="M354,136 L354,163.169858" id="Line" stroke="#FFFFFF" stroke-width="10"></path>
                <path d="M315,136 L315,163.169858" id="Line" stroke="#FFFFFF" stroke-width="10"></path>
                <path d="M276,136 L276,163.169858" id="Line" stroke="#FFFFFF" stroke-width="10"></path>
                <polygon id="Triangle-1" fill="#FFFFFF" points="315 255 415 295 215 295"></polygon>
                <path d="M155,569 L475,569 L315,639 L155,569 Z M155,449 L475,449 L475,569 L155,569 L155,449 Z" id="Combined-Shape" fill="#0082ED"></path>
                <path d="M420,192 L210,192" id="Line" stroke="#0082ED" stroke-width="10"></path>
                <rect id="Rectangle-21" stroke="#0082ED" stroke-width="10" fill="#0082ED" x="35" y="296" width="560" height="150"></rect>
                <text id="DIGITAL-SERVICES" font-family="Montserrat-Regular, Montserrat" font-size="58" font-weight="normal" line-spacing="55" fill="#FFFFFF">
                    <tspan x="195.781" y="508">DIGITAL</tspan>
                    <tspan x="438.511" y="514.056396" font-size="48"></tspan>
                    <tspan x="194" y="569.056396" font-size="48">SERVICES</tspan>
                </text>
                <rect id="Rectangle-21" fill="#00294B" x="0" y="306" width="630" height="130"></rect>
                <text id="SAN-FRANCISCO" font-family="Montserrat-Regular, Montserrat" font-size="67" font-weight="normal" fill="#FFFFFF">
                    <tspan x="25.359" y="395">SAN FRANCISCO</tspan>
                </text>
                <polygon id="Star-1" fill="#08284D" points="314.643489 608.25 304.357247 613.657797 306.321745 602.203899 298 594.092203 309.500368 592.421101 314.643489 582 319.78661 592.421101 331.286978 594.092203 322.965234 602.203899 324.929731 613.657797"></polygon>
            </g>
        </g>
    </g>
</svg>