<?xml version="1.0" encoding="utf-8"?>
<!-- Generator: Adobe Illustrator 21.1.0, SVG Export Plug-In . SVG Version: 6.00 Build 0)  -->
<svg version="1.1" id="Layer_1" xmlns="http://www.w3.org/2000/svg" xmlns:xlink="http://www.w3.org/1999/xlink" x="0px" y="0px"
	 viewBox="0 0 200 200" style="enable-background:new 0 0 200 200;" xml:space="preserve">
<style type="text/css">
	.st0{fill:#4C4848;}
	.st1{fill:#1E90FF;}
</style>
<g>
	<path class="st0" d="M144.5,166c0,12.6-10.2,22.8-22.8,22.8h-62c-12.6,0-22.8-10.2-22.8-22.8V31.2c0-12.6,10.2-22.8,22.8-22.8h62
		c12.6,0,22.8,10.2,22.8,22.8v18.5c2.9,0.6,5.7,1.3,8.3,2.3V31.2c0-17.2-14-31.2-31.2-31.2h-62C42.5,0,28.5,14,28.5,31.2V166
		c0,17.2,14,31.2,31.2,31.2h62c17.2,0,31.2-14,31.2-31.2v-26.8c-2.7,0.9-5.5,1.7-8.3,2.3V166z"/>
	<path class="st0" d="M132.5,48.5c1.4,0,2.8,0.1,4.2,0.2V37c0-2.3-1.9-4.2-4.2-4.2H48.9c-2.3,0-4.2,1.9-4.2,4.2v125
		c0,2.3,1.9,4.2,4.2,4.2h83.5c2.3,0,4.2-1.9,4.2-4.2v-19.5c-1.4,0.1-2.8,0.2-4.2,0.2c-1.4,0-2.8-0.1-4.2-0.2v15.4H53.1V41.2h75.2
		v7.5C129.7,48.6,131.1,48.5,132.5,48.5z"/>
	<path class="st1" d="M132.5,57.4c-25.1,0-45.5,17.1-45.5,38.2c0,8.4,3.3,16.6,9.3,23.2c-0.4,2.9-2.4,10.3-4.3,16.4
		c-0.5,1.6,0,3.4,1.3,4.4c0.8,0.6,1.7,1,2.7,1c0.6,0,1.3-0.2,1.9-0.5c5.9-3,17-7.8,21.6-7.8c0.4,0,0.5,0,0.5,0
		c4.1,1,8.3,1.5,12.5,1.5c25.1,0,45.5-17.1,45.5-38.2S157.6,57.4,132.5,57.4z M132.5,125.4c-3.6,0-7.2-0.4-10.6-1.2
		c-0.7-0.2-1.6-0.3-2.5-0.3c-4.5,0-11.4,2.5-16.8,4.8c3.3-12,2.1-13.2,0.7-14.6c-5.2-5.3-8-11.7-8-18.5c0-16.4,16.7-29.8,37.2-29.8
		c20.5,0,37.2,13.4,37.2,29.8C169.7,112.1,153,125.4,132.5,125.4z"/>
	<path class="st0" d="M117.7,23.5c2,0,3.6-1.6,3.6-3.6c0-2-1.6-3.6-3.6-3.6h-54c-2,0-3.6,1.6-3.6,3.6c0,2,1.6,3.6,3.6,3.6H117.7z"/>
</g>
</svg>
