<?xml version="1.0" encoding="UTF-8" standalone="no"?>
<svg width="200px" height="200px" viewBox="0 0 200 200" version="1.1" xmlns="http://www.w3.org/2000/svg" xmlns:xlink="http://www.w3.org/1999/xlink">
    <!-- Generator: Sketch 3.8.3 (29802) - http://www.bohemiancoding.com/sketch -->
    <title>Build</title>
    <desc>Created with Sketch.</desc>
    <defs></defs>
    <g id="Page-1" stroke="none" stroke-width="1" fill="none" fill-rule="evenodd">
        <g id="Build">
            <g id="build">
                <g>
                    <path d="M30,66.6666667 L36.6666667,66.6666667 C38.51,66.6666667 40,65.1733333 40,63.3333333 C40,61.4933333 38.51,60 36.6666667,60 L30,60 C28.1566667,60 26.6666667,61.4933333 26.6666667,63.3333333 C26.6666667,65.1733333 28.1566667,66.6666667 30,66.6666667 L30,66.6666667 Z" id="Path" fill="#1E90FF"></path>
                    <path d="M30,80 L36.6666667,80 C38.51,80 40,78.5066667 40,76.6666667 C40,74.8266667 38.51,73.3333333 36.6666667,73.3333333 L30,73.3333333 C28.1566667,73.3333333 26.6666667,74.8266667 26.6666667,76.6666667 C26.6666667,78.5066667 28.1566667,80 30,80 L30,80 Z" id="Path" fill="#1E90FF"></path>
                    <path d="M30,93.3333333 L36.6666667,93.3333333 C38.51,93.3333333 40,91.84 40,90 C40,88.16 38.51,86.6666667 36.6666667,86.6666667 L30,86.6666667 C28.1566667,86.6666667 26.6666667,88.16 26.6666667,90 C26.6666667,91.84 28.1566667,93.3333333 30,93.3333333 L30,93.3333333 Z" id="Path" fill="#1E90FF"></path>
                    <path d="M30,106.666667 L36.6666667,106.666667 C38.51,106.666667 40,105.173333 40,103.333333 C40,101.493333 38.51,100 36.6666667,100 L30,100 C28.1566667,100 26.6666667,101.493333 26.6666667,103.333333 C26.6666667,105.173333 28.1566667,106.666667 30,106.666667 L30,106.666667 Z" id="Path" fill="#1E90FF"></path>
                    <path d="M30,120 L36.6666667,120 C38.51,120 40,118.506667 40,116.666667 C40,114.826667 38.51,113.333333 36.6666667,113.333333 L30,113.333333 C28.1566667,113.333333 26.6666667,114.826667 26.6666667,116.666667 C26.6666667,118.506667 28.1566667,120 30,120 L30,120 Z" id="Path" fill="#1E90FF"></path>
                    <path d="M30,133.333333 L36.6666667,133.333333 C38.51,133.333333 40,131.84 40,130 C40,128.16 38.51,126.666667 36.6666667,126.666667 L30,126.666667 C28.1566667,126.666667 26.6666667,128.16 26.6666667,130 C26.6666667,131.84 28.1566667,133.333333 30,133.333333 L30,133.333333 Z" id="Path" fill="#1E90FF"></path>
                    <path d="M30,146.666667 L36.6666667,146.666667 C38.51,146.666667 40,145.173333 40,143.333333 C40,141.493333 38.51,140 36.6666667,140 L30,140 C28.1566667,140 26.6666667,141.493333 26.6666667,143.333333 C26.6666667,145.173333 28.1566667,146.666667 30,146.666667 L30,146.666667 Z" id="Path" fill="#1E90FF"></path>
                    <path d="M30,160 L36.6666667,160 C38.51,160 40,158.506667 40,156.666667 C40,154.826667 38.51,153.333333 36.6666667,153.333333 L30,153.333333 C28.1566667,153.333333 26.6666667,154.826667 26.6666667,156.666667 C26.6666667,158.506667 28.1566667,160 30,160 L30,160 Z" id="Path" fill="#1E90FF"></path>
                    <path d="M30,173.333333 L36.6666667,173.333333 C38.51,173.333333 40,171.84 40,170 C40,168.16 38.51,166.666667 36.6666667,166.666667 L30,166.666667 C28.1566667,166.666667 26.6666667,168.16 26.6666667,170 C26.6666667,171.84 28.1566667,173.333333 30,173.333333 L30,173.333333 Z" id="Path" fill="#1E90FF"></path>
                    <path d="M143.333333,66.6666667 C145.176667,66.6666667 146.666667,65.1733333 146.666667,63.3333333 C146.666667,61.4933333 145.176667,60 143.333333,60 L130,60 C128.156667,60 126.666667,61.4933333 126.666667,63.3333333 C126.666667,65.1733333 128.156667,66.6666667 130,66.6666667 L143.333333,66.6666667 L143.333333,66.6666667 Z" id="Path" fill="#1E90FF"></path>
                    <path d="M113.333333,76.6666667 C113.333333,78.5066667 114.823333,80 116.666667,80 L150,80 C151.843333,80 153.333333,78.5066667 153.333333,76.6666667 C153.333333,74.8266667 151.843333,73.3333333 150,73.3333333 L116.666667,73.3333333 C114.823333,73.3333333 113.333333,74.8266667 113.333333,76.6666667 L113.333333,76.6666667 Z" id="Path" fill="#1E90FF"></path>
                    <path d="M50,80 L103.333333,80 C105.176667,80 106.666667,78.5066667 106.666667,76.6666667 C106.666667,74.8266667 105.176667,73.3333333 103.333333,73.3333333 L50,73.3333333 C48.1566667,73.3333333 46.6666667,74.8266667 46.6666667,76.6666667 C46.6666667,78.5066667 48.1566667,80 50,80 L50,80 Z" id="Path" fill="#1E90FF"></path>
                    <path d="M50,66.6666667 L83.3333333,66.6666667 C85.1766667,66.6666667 86.6666667,65.1733333 86.6666667,63.3333333 C86.6666667,61.4933333 85.1766667,60 83.3333333,60 L50,60 C48.1566667,60 46.6666667,61.4933333 46.6666667,63.3333333 C46.6666667,65.1733333 48.1566667,66.6666667 50,66.6666667 L50,66.6666667 Z" id="Path" fill="#1E90FF"></path>
                    <path d="M116.666667,60 L96.6666667,60 C94.8233333,60 93.3333333,61.4933333 93.3333333,63.3333333 C93.3333333,65.1733333 94.8233333,66.6666667 96.6666667,66.6666667 L116.666667,66.6666667 C118.51,66.6666667 120,65.1733333 120,63.3333333 C120,61.4933333 118.51,60 116.666667,60 L116.666667,60 Z" id="Path" fill="#1E90FF"></path>
                    <path d="M166.666667,90 C166.666667,88.16 165.176667,86.6666667 163.333333,86.6666667 L110,86.6666667 C108.156667,86.6666667 106.666667,88.16 106.666667,90 C106.666667,91.84 108.156667,93.3333333 110,93.3333333 L163.333333,93.3333333 C165.176667,93.3333333 166.666667,91.84 166.666667,90 L166.666667,90 Z" id="Path" fill="#1E90FF"></path>
                    <path d="M143.333333,106.666667 C145.176667,106.666667 146.666667,105.173333 146.666667,103.333333 C146.666667,101.493333 145.176667,100 143.333333,100 L116.666667,100 C114.823333,100 113.333333,101.493333 113.333333,103.333333 C113.333333,105.173333 114.823333,106.666667 116.666667,106.666667 L143.333333,106.666667 L143.333333,106.666667 Z" id="Path" fill="#1E90FF"></path>
                    <path d="M50,106.666667 L103.333333,106.666667 C105.176667,106.666667 106.666667,105.173333 106.666667,103.333333 C106.666667,101.493333 105.176667,100 103.333333,100 L50,100 C48.1566667,100 46.6666667,101.493333 46.6666667,103.333333 C46.6666667,105.173333 48.1566667,106.666667 50,106.666667 L50,106.666667 Z" id="Path" fill="#1E90FF"></path>
                    <path d="M50,93.3333333 L63.3333333,93.3333333 C65.1766667,93.3333333 66.6666667,91.84 66.6666667,90 C66.6666667,88.16 65.1766667,86.6666667 63.3333333,86.6666667 L50,86.6666667 C48.1566667,86.6666667 46.6666667,88.16 46.6666667,90 C46.6666667,91.84 48.1566667,93.3333333 50,93.3333333 L50,93.3333333 Z" id="Path" fill="#1E90FF"></path>
                    <path d="M76.6666667,86.6666667 C74.8233333,86.6666667 73.3333333,88.16 73.3333333,90 C73.3333333,91.84 74.8233333,93.3333333 76.6666667,93.3333333 L96.6666667,93.3333333 C98.51,93.3333333 100,91.84 100,90 C100,88.16 98.51,86.6666667 96.6666667,86.6666667 L76.6666667,86.6666667 L76.6666667,86.6666667 Z" id="Path" fill="#1E90FF"></path>
                    <path d="M123.333333,143.333333 C123.333333,141.493333 121.843333,140 120,140 L110,140 C108.156667,140 106.666667,141.493333 106.666667,143.333333 C106.666667,145.173333 108.156667,146.666667 110,146.666667 L120,146.666667 C121.843333,146.666667 123.333333,145.173333 123.333333,143.333333 L123.333333,143.333333 Z" id="Path" fill="#1E90FF"></path>
                    <path d="M50,146.666667 L63.3333333,146.666667 C65.1766667,146.666667 66.6666667,145.173333 66.6666667,143.333333 C66.6666667,141.493333 65.1766667,140 63.3333333,140 L50,140 C48.1566667,140 46.6666667,141.493333 46.6666667,143.333333 C46.6666667,145.173333 48.1566667,146.666667 50,146.666667 L50,146.666667 Z" id="Path" fill="#1E90FF"></path>
                    <path d="M96.6666667,140 L76.6666667,140 C74.8233333,140 73.3333333,141.493333 73.3333333,143.333333 C73.3333333,145.173333 74.8233333,146.666667 76.6666667,146.666667 L96.6666667,146.666667 C98.51,146.666667 100,145.173333 100,143.333333 C100,141.493333 98.51,140 96.6666667,140 L96.6666667,140 Z" id="Path" fill="#1E90FF"></path>
                    <path d="M50,160 L90,160 C91.8433333,160 93.3333333,158.506667 93.3333333,156.666667 C93.3333333,154.826667 91.8433333,153.333333 90,153.333333 L50,153.333333 C48.1566667,153.333333 46.6666667,154.826667 46.6666667,156.666667 C46.6666667,158.506667 48.1566667,160 50,160 L50,160 Z" id="Path" fill="#1E90FF"></path>
                    <path d="M103.333333,160 L110,160 C111.843333,160 113.333333,158.506667 113.333333,156.666667 C113.333333,154.826667 111.843333,153.333333 110,153.333333 L103.333333,153.333333 C101.49,153.333333 100,154.826667 100,156.666667 C100,158.506667 101.49,160 103.333333,160 L103.333333,160 Z" id="Path" fill="#1E90FF"></path>
                    <path d="M50,173.333333 L70,173.333333 C71.8433333,173.333333 73.3333333,171.84 73.3333333,170 C73.3333333,168.16 71.8433333,166.666667 70,166.666667 L50,166.666667 C48.1566667,166.666667 46.6666667,168.16 46.6666667,170 C46.6666667,171.84 48.1566667,173.333333 50,173.333333 L50,173.333333 Z" id="Path" fill="#1E90FF"></path>
                    <path d="M80,170 C80,171.84 81.49,173.333333 83.3333333,173.333333 L116.666667,173.333333 C118.51,173.333333 120,171.84 120,170 C120,168.16 118.51,166.666667 116.666667,166.666667 L83.3333333,166.666667 C81.49,166.666667 80,168.16 80,170 L80,170 Z" id="Path" fill="#1E90FF"></path>
                    <path d="M153.333333,116.666667 C153.333333,114.826667 151.843333,113.333333 150,113.333333 L96.6666667,113.333333 C94.8233333,113.333333 93.3333333,114.826667 93.3333333,116.666667 C93.3333333,118.506667 94.8233333,120 96.6666667,120 L150,120 C151.843333,120 153.333333,118.506667 153.333333,116.666667 L153.333333,116.666667 Z" id="Path" fill="#1E90FF"></path>
                    <path d="M130,130 C130,128.16 128.51,126.666667 126.666667,126.666667 L103.333333,126.666667 C101.49,126.666667 100,128.16 100,130 C100,131.84 101.49,133.333333 103.333333,133.333333 L126.666667,133.333333 C128.51,133.333333 130,131.84 130,130 L130,130 Z" id="Path" fill="#1E90FF"></path>
                    <path d="M50,133.333333 L90,133.333333 C91.8433333,133.333333 93.3333333,131.84 93.3333333,130 C93.3333333,128.16 91.8433333,126.666667 90,126.666667 L50,126.666667 C48.1566667,126.666667 46.6666667,128.16 46.6666667,130 C46.6666667,131.84 48.1566667,133.333333 50,133.333333 L50,133.333333 Z" id="Path" fill="#1E90FF"></path>
                    <path d="M50,120 L83.3333333,120 C85.1766667,120 86.6666667,118.506667 86.6666667,116.666667 C86.6666667,114.826667 85.1766667,113.333333 83.3333333,113.333333 L50,113.333333 C48.1566667,113.333333 46.6666667,114.826667 46.6666667,116.666667 C46.6666667,118.506667 48.1566667,120 50,120 L50,120 Z" id="Path" fill="#1E90FF"></path>
                    <path d="M26.6666667,13.3333333 C30.34,13.3333333 33.3333333,16.3233333 33.3333333,20 C33.3333333,23.6766667 30.34,26.6666667 26.6666667,26.6666667 C22.99,26.6666667 20,23.6766667 20,20 C20,16.3233333 22.99,13.3333333 26.6666667,13.3333333 L26.6666667,13.3333333 Z M40,20 C40,23.6766667 42.99,26.6666667 46.6666667,26.6666667 C50.34,26.6666667 53.3333333,23.6766667 53.3333333,20 C53.3333333,16.3233333 50.34,13.3333333 46.6666667,13.3333333 C42.99,13.3333333 40,16.3233333 40,20 L40,20 Z M60,20 C60,23.6766667 62.99,26.6666667 66.6666667,26.6666667 C70.34,26.6666667 73.3333333,23.6766667 73.3333333,20 C73.3333333,16.3233333 70.34,13.3333333 66.6666667,13.3333333 C62.99,13.3333333 60,16.3233333 60,20 L60,20 Z M200,156.666667 L200,170 C200,171.84 198.51,173.333333 196.666667,173.333333 L191.59,173.333333 C191.24,174.326667 190.836667,175.3 190.383333,176.25 L193.97,179.836667 C195.273333,181.14 195.273333,183.25 193.97,184.55 L184.543333,193.976667 C183.92,194.603333 183.073333,194.953333 182.186667,194.953333 C181.303333,194.953333 180.456667,194.603333 179.83,193.976667 L176.24,190.386667 C175.293333,190.836667 174.323333,191.24 173.33,191.59 L173.33,196.666667 C173.33,198.506667 171.84,200 169.996667,200 L156.663333,200 C154.82,200 153.33,198.506667 153.33,196.666667 L153.33,191.59 C152.34,191.24 151.37,190.836667 150.42,190.383333 L146.833333,193.97 C145.583333,195.22 143.37,195.22 142.12,193.97 L132.693333,184.543333 C131.39,183.243333 131.39,181.133333 132.693333,179.83 L136.28,176.243333 C135.83,175.293333 135.426667,174.323333 135.076667,173.333333 L130,173.333333 C128.156667,173.333333 126.666667,171.84 126.666667,170 L126.666667,156.666667 C126.666667,154.826667 128.156667,153.333333 130,153.333333 L135.076667,153.333333 C135.426667,152.34 135.83,151.366667 136.283333,150.416667 L132.696667,146.83 C131.393333,145.526667 131.393333,143.416667 132.696667,142.116667 L142.12,132.69 C143.37,131.44 145.583333,131.44 146.833333,132.69 L150.423333,136.28 C151.37,135.826667 152.343333,135.423333 153.336667,135.073333 L153.336667,130 C153.336667,128.16 154.826667,126.666667 156.67,126.666667 L170,126.666667 C171.843333,126.666667 173.333333,128.16 173.333333,130 L173.333333,135.073333 C174.326667,135.423333 175.3,135.826667 176.243333,136.276667 L179.833333,132.69 C181.136667,131.393333 183.246667,131.39 184.546667,132.693333 L193.973333,142.12 C195.276667,143.42 195.276667,145.53 193.973333,146.833333 L190.386667,150.42 C190.84,151.37 191.24,152.343333 191.59,153.333333 L196.666667,153.333333 C198.51,153.333333 200,154.826667 200,156.666667 L200,156.666667 Z M193.333333,160 L189.123333,160 C187.603333,160 186.276667,158.97 185.896667,157.496667 C185.353333,155.386667 184.52,153.37 183.413333,151.503333 C182.643333,150.193333 182.853333,148.526667 183.93,147.45 L186.903333,144.476667 L182.19,139.763333 L179.216667,142.736667 C178.136667,143.81 176.466667,144.02 175.163333,143.246667 C173.303333,142.15 171.286667,141.316667 169.166667,140.766667 C167.696667,140.386667 166.666667,139.06 166.666667,137.54 L166.666667,133.333333 L160.003333,133.333333 L160.003333,137.54 C160.003333,139.06 158.973333,140.386667 157.503333,140.766667 C155.383333,141.316667 153.363333,142.15 151.5,143.25 C150.196667,144.023333 148.53,143.813333 147.45,142.733333 L144.476667,139.76 L139.766667,144.473333 L142.736667,147.446667 C143.813333,148.523333 144.023333,150.19 143.253333,151.5 C142.146667,153.363333 141.313333,155.383333 140.77,157.496667 C140.39,158.97 139.063333,160 137.543333,160 L133.333333,160 L133.333333,166.666667 L137.543333,166.666667 C139.063333,166.666667 140.39,167.696667 140.77,169.166667 C141.313333,171.276667 142.146667,173.293333 143.253333,175.16 C144.023333,176.47 143.813333,178.136667 142.736667,179.213333 L139.763333,182.186667 L144.476667,186.9 L147.45,183.926667 C148.53,182.85 150.2,182.64 151.503333,183.413333 C153.38,184.52 155.393333,185.353333 157.49,185.893333 C158.966667,186.27 159.996667,187.6 159.996667,189.12 L159.996667,193.333333 L166.663333,193.333333 L166.663333,189.123333 C166.663333,187.603333 167.693333,186.273333 169.166667,185.896667 C171.276667,185.353333 173.293333,184.516667 175.16,183.416667 C176.466667,182.643333 178.14,182.853333 179.213333,183.93 L182.186667,186.906667 L186.9,182.193333 L183.926667,179.22 C182.846667,178.143333 182.64,176.473333 183.413333,175.163333 C184.52,173.296667 185.353333,171.28 185.896667,169.17 C186.276667,167.696667 187.603333,166.666667 189.123333,166.666667 L193.333333,166.666667 L193.333333,160 L193.333333,160 Z M173.333333,163.333333 C173.333333,168.846667 168.846667,173.333333 163.333333,173.333333 C157.82,173.333333 153.333333,168.846667 153.333333,163.333333 C153.333333,157.82 157.82,153.333333 163.333333,153.333333 C168.846667,153.333333 173.333333,157.82 173.333333,163.333333 L173.333333,163.333333 Z M166.666667,163.333333 C166.666667,161.496667 165.173333,160 163.333333,160 C161.493333,160 160,161.496667 160,163.333333 C160,165.17 161.493333,166.666667 163.333333,166.666667 C165.173333,166.666667 166.666667,165.17 166.666667,163.333333 L166.666667,163.333333 Z M130,193.333333 L16.6666667,193.333333 C11.1533333,193.333333 6.66666667,188.846667 6.66666667,183.333333 L6.66666667,50 C6.66666667,48.16 5.17666667,46.6666667 3.33333333,46.6666667 C1.49,46.6666667 0,48.16 0,50 L0,183.333333 C0,192.523333 7.47666667,200 16.6666667,200 L130,200 C131.843333,200 133.333333,198.506667 133.333333,196.666667 C133.333333,194.826667 131.843333,193.333333 130,193.333333 L130,193.333333 Z M16.6666667,0 C7.47666667,0 0,7.47666667 0,16.6666667 L0,36.6666667 C0,38.5066667 1.49,40 3.33333333,40 L183.333333,40 C185.176667,40 186.666667,38.5066667 186.666667,36.6666667 C186.666667,34.8266667 185.176667,33.3333333 183.333333,33.3333333 L6.66666667,33.3333333 L6.66666667,16.6666667 C6.66666667,11.1533333 11.1533333,6.66666667 16.6666667,6.66666667 L183.333333,6.66666667 C188.846667,6.66666667 193.333333,11.1533333 193.333333,16.6666667 L193.333333,130 C193.333333,131.84 194.823333,133.333333 196.666667,133.333333 C198.51,133.333333 200,131.84 200,130 L200,16.6666667 C200,7.47666667 192.523333,0 183.333333,0 L16.6666667,0 Z" id="web-development" fill="#4A4A4A"></path>
                </g>
            </g>
        </g>
    </g>
</svg>