<?xml version="1.0" encoding="UTF-8" standalone="no"?>
<svg width="200px" height="200px" viewBox="0 0 200 200" version="1.1" xmlns="http://www.w3.org/2000/svg" xmlns:xlink="http://www.w3.org/1999/xlink">
    <!-- Generator: Sketch 3.8.3 (29802) - http://www.bohemiancoding.com/sketch -->
    <title>Consistent</title>
    <desc>Created with Sketch.</desc>
    <defs></defs>
    <g id="Page-1" stroke="none" stroke-width="1" fill="none" fill-rule="evenodd">
        <g id="Consistent">
            <path d="M187,163.333333 C187,146.793333 173.543333,133.333333 157,133.333333 C140.456667,133.333333 127,146.793333 127,163.333333 C127,179.873333 140.456667,193.333333 157,193.333333 C173.543333,193.333333 187,179.873333 187,163.333333 L187,163.333333 Z M193.666667,163.333333 C193.666667,183.55 177.216667,200 157,200 C136.783333,200 120.333333,183.55 120.333333,163.333333 C120.333333,143.116667 136.783333,126.666667 157,126.666667 C177.216667,126.666667 193.666667,143.116667 193.666667,163.333333 L193.666667,163.333333 Z M60.3333333,33.3333333 L127,33.3333333 L127,20 L109.996667,20 C108.413333,20 107.046667,18.8833333 106.733333,17.33 C105.476667,11.15 99.9833333,6.66666667 93.6666667,6.66666667 C87.35,6.66666667 81.8566667,11.15 80.6,17.33 C80.2866667,18.8833333 78.92,20 77.3366667,20 L60.3333333,20 L60.3333333,33.3333333 Z M53.6666667,36.6666667 L53.6666667,16.6666667 C53.6666667,14.8266667 55.1566667,13.3333333 57,13.3333333 L74.81,13.3333333 C77.5933333,5.46666667 85.13,0 93.6666667,0 C102.203333,0 109.74,5.46666667 112.523333,13.3333333 L130.333333,13.3333333 C132.176667,13.3333333 133.666667,14.8266667 133.666667,16.6666667 L133.666667,36.6666667 C133.666667,38.5066667 132.176667,40 130.333333,40 L57,40 C55.1566667,40 53.6666667,38.5066667 53.6666667,36.6666667 L53.6666667,36.6666667 Z M93.6666667,13.3333333 C89.99,13.3333333 87,16.3233333 87,20 C87,23.6766667 89.99,26.6666667 93.6666667,26.6666667 C97.3433333,26.6666667 100.333333,23.6766667 100.333333,20 C100.333333,16.3233333 97.3433333,13.3333333 93.6666667,13.3333333 L93.6666667,13.3333333 Z M143.666667,33.3333333 L160.333333,33.3333333 L160.333333,116.666667 C160.333333,118.506667 161.823333,120 163.666667,120 C165.51,120 167,118.506667 167,116.666667 L167,30 C167,28.16 165.51,26.6666667 163.666667,26.6666667 L143.666667,26.6666667 C141.823333,26.6666667 140.333333,28.16 140.333333,30 C140.333333,31.84 141.823333,33.3333333 143.666667,33.3333333 L143.666667,33.3333333 Z M43.6666667,26.6666667 L23.6666667,26.6666667 C21.8233333,26.6666667 20.3333333,28.16 20.3333333,30 L20.3333333,173.333333 C20.3333333,180.686667 26.3133333,186.666667 33.6666667,186.666667 L110.333333,186.666667 C112.176667,186.666667 113.666667,185.173333 113.666667,183.333333 C113.666667,181.493333 112.176667,180 110.333333,180 L33.6666667,180 C29.99,180 27,177.01 27,173.333333 L27,33.3333333 L43.6666667,33.3333333 C45.51,33.3333333 47,31.84 47,30 C47,28.16 45.51,26.6666667 43.6666667,26.6666667 L43.6666667,26.6666667 Z M143.666667,20 L163.666667,20 C168.526667,20 173.666667,25.14 173.666667,30 L173.666667,116.666667 C173.666667,118.506667 175.156667,120 177,120 C178.843333,120 180.333333,118.506667 180.333333,116.666667 L180.333333,30 C180.333333,21.4333333 172.233333,13.3333333 163.666667,13.3333333 L143.666667,13.3333333 C141.823333,13.3333333 140.333333,14.8266667 140.333333,16.6666667 C140.333333,18.5066667 141.823333,20 143.666667,20 L143.666667,20 Z M120.333333,196.666667 C120.333333,198.506667 118.843333,200 117,200 L23.6666667,200 C15.1,200 7,191.9 7,183.333333 L7,30 C7,21.4333333 15.1,13.3333333 23.6666667,13.3333333 L43.6666667,13.3333333 C45.51,13.3333333 47,14.8266667 47,16.6666667 C47,18.5066667 45.51,20 43.6666667,20 L23.6666667,20 C18.8066667,20 13.6666667,25.14 13.6666667,30 L13.6666667,183.333333 C13.6666667,188.193333 18.8066667,193.333333 23.6666667,193.333333 L117,193.333333 C118.843333,193.333333 120.333333,194.826667 120.333333,196.666667 L120.333333,196.666667 Z" id="notepad" fill="#4A4A4A"></path>
            <path d="M167.976667,154.31 L153.666667,168.62 L146.023333,160.976667 C144.72,159.673333 142.613333,159.673333 141.31,160.976667 C140.006667,162.28 140.006667,164.386667 141.31,165.69 L151.31,175.69 C151.96,176.34 152.813333,176.666667 153.666667,176.666667 C154.52,176.666667 155.373333,176.34 156.023333,175.69 L172.69,159.023333 C173.993333,157.72 173.993333,155.613333 172.69,154.31 C171.386667,153.006667 169.28,153.006667 167.976667,154.31 L167.976667,154.31 Z" id="Path" fill="#1E90FF"></path>
            <path d="M103.666667,153.333333 C105.51,153.333333 107,151.84 107,150 C107,148.16 105.51,146.666667 103.666667,146.666667 L77,146.666667 C75.1566667,146.666667 73.6666667,148.16 73.6666667,150 C73.6666667,151.84 75.1566667,153.333333 77,153.333333 L103.666667,153.333333 Z" id="Path" fill="#1E90FF"></path>
            <path d="M120.333333,130 C120.333333,128.16 118.843333,126.666667 117,126.666667 L77,126.666667 C75.1566667,126.666667 73.6666667,128.16 73.6666667,130 C73.6666667,131.84 75.1566667,133.333333 77,133.333333 L117,133.333333 C118.843333,133.333333 120.333333,131.84 120.333333,130 L120.333333,130 Z" id="Path" fill="#1E90FF"></path>
            <path d="M73.6666667,110 C73.6666667,111.84 75.1566667,113.333333 77,113.333333 L137,113.333333 C138.843333,113.333333 140.333333,111.84 140.333333,110 C140.333333,108.16 138.843333,106.666667 137,106.666667 L77,106.666667 C75.1566667,106.666667 73.6666667,108.16 73.6666667,110 L73.6666667,110 Z" id="Path" fill="#1E90FF"></path>
            <path d="M77,93.3333333 L123.666667,93.3333333 C125.51,93.3333333 127,91.84 127,90 C127,88.16 125.51,86.6666667 123.666667,86.6666667 L77,86.6666667 C75.1566667,86.6666667 73.6666667,88.16 73.6666667,90 C73.6666667,91.84 75.1566667,93.3333333 77,93.3333333 L77,93.3333333 Z" id="Path" fill="#1E90FF"></path>
            <path d="M77,73.3333333 L130.333333,73.3333333 C132.176667,73.3333333 133.666667,71.84 133.666667,70 C133.666667,68.16 132.176667,66.6666667 130.333333,66.6666667 L77,66.6666667 C75.1566667,66.6666667 73.6666667,68.16 73.6666667,70 C73.6666667,71.84 75.1566667,73.3333333 77,73.3333333 L77,73.3333333 Z" id="Path" fill="#1E90FF"></path>
            <path d="M57,146.666667 L50.3333333,146.666667 C48.49,146.666667 47,148.16 47,150 C47,151.84 48.49,153.333333 50.3333333,153.333333 L57,153.333333 C58.8433333,153.333333 60.3333333,151.84 60.3333333,150 C60.3333333,148.16 58.8433333,146.666667 57,146.666667 L57,146.666667 Z" id="Path" fill="#1E90FF"></path>
            <path d="M57,126.666667 L50.3333333,126.666667 C48.49,126.666667 47,128.16 47,130 C47,131.84 48.49,133.333333 50.3333333,133.333333 L57,133.333333 C58.8433333,133.333333 60.3333333,131.84 60.3333333,130 C60.3333333,128.16 58.8433333,126.666667 57,126.666667 L57,126.666667 Z" id="Path" fill="#1E90FF"></path>
            <path d="M57,106.666667 L50.3333333,106.666667 C48.49,106.666667 47,108.16 47,110 C47,111.84 48.49,113.333333 50.3333333,113.333333 L57,113.333333 C58.8433333,113.333333 60.3333333,111.84 60.3333333,110 C60.3333333,108.16 58.8433333,106.666667 57,106.666667 L57,106.666667 Z" id="Path" fill="#1E90FF"></path>
            <path d="M57,86.6666667 L50.3333333,86.6666667 C48.49,86.6666667 47,88.16 47,90 C47,91.84 48.49,93.3333333 50.3333333,93.3333333 L57,93.3333333 C58.8433333,93.3333333 60.3333333,91.84 60.3333333,90 C60.3333333,88.16 58.8433333,86.6666667 57,86.6666667 L57,86.6666667 Z" id="Path" fill="#1E90FF"></path>
            <path d="M50.3333333,73.3333333 L57,73.3333333 C58.8433333,73.3333333 60.3333333,71.84 60.3333333,70 C60.3333333,68.16 58.8433333,66.6666667 57,66.6666667 L50.3333333,66.6666667 C48.49,66.6666667 47,68.16 47,70 C47,71.84 48.49,73.3333333 50.3333333,73.3333333 L50.3333333,73.3333333 Z" id="Path" fill="#1E90FF"></path>
        </g>
    </g>
</svg>