<?xml version="1.0" encoding="UTF-8" standalone="no"?>
<svg width="350px" height="151px" viewBox="0 0 350 151" version="1.1" xmlns="http://www.w3.org/2000/svg" xmlns:xlink="http://www.w3.org/1999/xlink">
    <!-- Generator: Sketch 3.8.3 (29802) - http://www.bohemiancoding.com/sketch -->
    <title>GoldenGate</title>
    <desc>Created with Sketch.</desc>
    <defs>
        <path d="M258.598957,103 L91.5989566,103 L91.5989565,148.727842 C91.5989565,149.836685 90.7115232,150.735579 89.5993415,150.735579 L83.5985715,150.735579 C82.4942147,150.735579 81.5989565,149.842128 81.5989565,148.727842 L81.5989565,103 L2.00078235,103 C0.895780769,103 0,102.1061 0,100.995118 L0,100.004882 C0,98.897616 0.898259461,98 2.00078235,98 L81.5989565,98 L81.5989565,68.689681 L82.6912417,67.9015951 L82.6912417,33.4943685 L83.5972475,32.7935781 L83.5972475,2.74095086 C83.5972475,1.63341482 84.4916462,0.735579467 85.5988161,0.735579467 L87.6572025,0.735579467 C88.7626382,0.735579467 89.658771,1.62645294 89.658771,2.74095086 L89.658771,32.7935781 L90.6133608,33.4943685 L90.6133608,67.9015951 L91.5989566,68.689681 L91.5989566,98 L258.598957,98 L258.598957,68.689681 L259.691242,67.9015951 L259.691242,33.4943685 L260.597248,32.7935781 L260.597248,2.74095086 C260.597248,1.63341482 261.491646,0.735579467 262.598816,0.735579467 L264.657202,0.735579467 C265.762638,0.735579467 266.658771,1.62645294 266.658771,2.74095086 L266.658771,32.7935781 L267.613361,33.4943685 L267.613361,67.9015951 L268.598957,68.689681 L268.598957,98 L347.999218,98 C349.104219,98 350,98.8938998 350,100.004882 L350,100.995118 C350,102.102384 349.101741,103 347.999218,103 L268.598957,103 L268.598957,148.727842 C268.598957,149.836685 267.711523,150.735579 266.599342,150.735579 L260.598572,150.735579 C259.494215,150.735579 258.598957,149.842128 258.598957,148.727842 L258.598957,103 Z" id="path-1"></path>
        <mask id="mask-2" maskContentUnits="userSpaceOnUse" maskUnits="objectBoundingBox" x="0" y="0" width="350" height="150" fill="white">
            <use xlink:href="#path-1"></use>
        </mask>
    </defs>
    <g id="Symbols" stroke="none" stroke-width="1" fill="none" fill-rule="evenodd">
        <g id="GoldenGate">
            <g>
                <path d="M88.9212883,17.2170339 C92.567517,32.6849188 100.422049,47.3624579 112.484883,59.4252926 C129.654414,76.5948229 152.121074,85.2387507 174.62424,85.3570763 C197.439724,85.477044 220.292734,76.8331161 237.700558,59.4252926 C249.474331,47.6515192 257.239072,33.3868523 260.99478,18.3276169" id="Oval-28" stroke="#4A4A4A" stroke-width="3" stroke-linecap="round"></path>
                <path d="M300.645092,109.268367 C309.004265,95.7526476 313.82886,79.8200676 313.82886,62.760643 C313.82886,39.7932649 305.083958,18.868368 290.742167,3.13396393" id="Oval-28" stroke="#4A4A4A" stroke-width="3" stroke-linecap="round" transform="translate(302.285513, 56.201165) rotate(-225.000000) translate(-302.285513, -56.201165) "></path>
                <path d="M100.543608,67.3927735 C84.7502319,52.7603343 63.6114386,43.8159433 40.3835709,43.8159433 C23.7329409,43.8159433 8.15579731,48.4120852 -5.14837683,56.404886" id="Oval-28" stroke="#4A4A4A" stroke-width="3" stroke-linecap="round" transform="translate(47.697616, 55.604358) rotate(-225.000000) translate(-47.697616, -55.604358) "></path>
                <use id="Combined-Shape" stroke="#4A4A4A" mask="url(#mask-2)" stroke-width="4" xlink:href="#path-1"></use>
                <path d="M64,58 L64,98" id="Line" stroke="#4990E2" stroke-width="2" stroke-linecap="round"></path>
                <path d="M286,58 L286,98" id="Line" stroke="#4990E2" stroke-width="2" stroke-linecap="round"></path>
                <path d="M274,43 L274,98" id="Line" stroke="#4990E2" stroke-width="2" stroke-linecap="round"></path>
                <path d="M298,69 L298,98" id="Line" stroke="#4990E2" stroke-width="2" stroke-linecap="round"></path>
                <path d="M253,43 L253,98" id="Line" stroke="#4990E2" stroke-width="2" stroke-linecap="round"></path>
                <path d="M241,58 L241,98" id="Line" stroke="#4990E2" stroke-width="2" stroke-linecap="round"></path>
                <path d="M229,69 L229,98" id="Line" stroke="#4990E2" stroke-width="2" stroke-linecap="round"></path>
                <path d="M217,77 L217,98" id="Line" stroke="#4990E2" stroke-width="2" stroke-linecap="round"></path>
                <path d="M205,82 L205,98" id="Line" stroke="#4990E2" stroke-width="2" stroke-linecap="round"></path>
                <path d="M322,82 L322,98" id="Line" stroke="#4990E2" stroke-width="2" stroke-linecap="round"></path>
                <path d="M28,82 L28,98" id="Line" stroke="#4990E2" stroke-width="2" stroke-linecap="round"></path>
                <path d="M193,85 L193,98" id="Line" stroke="#4990E2" stroke-width="2" stroke-linecap="round"></path>
                <path d="M181,86 L181,98" id="Line" stroke="#4990E2" stroke-width="2" stroke-linecap="round"></path>
                <path d="M169,86 L169,98" id="Line" stroke="#4990E2" stroke-width="2" stroke-linecap="round"></path>
                <path d="M157,85 L157,98" id="Line" stroke="#4990E2" stroke-width="2" stroke-linecap="round"></path>
                <path d="M145,82 L145,98" id="Line" stroke="#4990E2" stroke-width="2" stroke-linecap="round"></path>
                <path d="M133,77 L133,98" id="Line" stroke="#4990E2" stroke-width="2" stroke-linecap="round"></path>
                <path d="M40,77 L40,98" id="Line" stroke="#4990E2" stroke-width="2" stroke-linecap="round"></path>
                <path d="M121,69 L121,98" id="Line" stroke="#4990E2" stroke-width="2" stroke-linecap="round"></path>
                <path d="M109,58 L109,98" id="Line" stroke="#4990E2" stroke-width="2" stroke-linecap="round"></path>
                <path d="M97,43 L97,98" id="Line" stroke="#4990E2" stroke-width="2" stroke-linecap="round"></path>
                <path d="M52,69 L52,98" id="Line" stroke="#4990E2" stroke-width="2" stroke-linecap="round"></path>
                <path d="M76,43 L76,98" id="Line" stroke="#4990E2" stroke-width="2" stroke-linecap="round"></path>
                <path d="M310,77 L310,98" id="Line" stroke="#4990E2" stroke-width="2" stroke-linecap="round"></path>
            </g>
        </g>
    </g>
</svg>