<?xml version="1.0" encoding="UTF-8" standalone="no"?>
<svg width="200px" height="200px" viewBox="0 0 200 200" version="1.1" xmlns="http://www.w3.org/2000/svg" xmlns:xlink="http://www.w3.org/1999/xlink">
    <!-- Generator: Sketch 3.8.3 (29802) - http://www.bohemiancoding.com/sketch -->
    <title>Artboard 8</title>
    <desc>Created with Sketch.</desc>
    <defs></defs>
    <g id="Page-1" stroke="none" stroke-width="1" fill="none" fill-rule="evenodd">
        <g id="Artboard-8">
            <path d="M22.2631764,63.2274189 C47.1230904,41.1310204 174.109524,47.2367246 189.359279,63.2274188 C204.609035,79.2181131 217.077999,125.439005 189.359279,148.657518 C161.64056,171.876032 38.7462225,168.919168 17.0344536,147.642437 C-4.67731523,126.365706 -2.59673754,85.3238173 22.2631764,63.2274189 Z" id="Rectangle-6" fill="#1E90FF" transform="translate(103.937773, 106.861495) rotate(-315.000000) translate(-103.937773, -106.861495) "></path>
            <path d="M195.858197,0.959016393 C194.57623,-0.319672131 192.504098,-0.319672131 191.222131,0.959016393 L161.963115,30.2213115 C161.39918,30.6901639 160.992623,31.3459016 160.831967,32.0770492 C160.533607,33.4147541 161.104098,34.7918033 162.238525,35.5327869 C182.143443,55.9885246 181.97623,88.8245902 161.733607,109.070492 L150.884426,119.922951 L114.569672,83.604918 L118.458197,79.7163934 C120.130328,80.6213115 121.690984,80.8737705 122.864754,80.8737705 C127.018852,80.8737705 129.963115,78.0508197 130.284426,77.7295082 L153.235246,54.7786885 C156.143443,51.8672131 158.543443,45.6147541 153.235246,40.3032787 C150.635246,37.7032787 147.963115,37.1590164 146.179508,37.1590164 C142.028689,37.1590164 139.084426,39.9819672 138.759836,40.3032787 L115.812295,63.2540984 C113.382787,65.6868852 111.369672,70.4508197 113.851639,75.0508197 L109.933607,78.9688525 L76.8319672,45.8704918 L87.6778689,35.0180328 C105.031967,17.6672131 131.658197,14.6180328 152.42541,27.6016393 C153.959836,28.5655738 155.986066,28.0967213 156.943443,26.5622951 C157.904098,25.0278689 157.438525,23.004918 155.904098,22.0442623 C132.533607,7.43114754 102.569672,10.857377 83.0418033,30.3819672 L17.5204918,95.9360656 C-5.84016393,119.296721 -5.84016393,155.9 17.5204918,179.260656 C29.1991803,190.942623 44.192623,196.781967 59.1827869,196.781967 C74.1729508,196.781967 89.1663934,190.939344 100.845082,179.260656 L153.051639,127.031148 C153.110656,126.978689 153.179508,126.962295 153.235246,126.909836 C153.290984,126.854098 153.307377,126.781967 153.356557,126.72623 L166.369672,113.706557 C188.553279,91.5229508 189.313934,55.9065574 168.654918,32.7983607 L195.858197,5.59836066 C197.140164,4.31639344 197.140164,2.24098361 195.858197,0.959016393 L195.858197,0.959016393 Z M120.448361,67.8934426 L143.39918,44.942623 C143.409016,44.9295082 144.740164,43.7163934 146.179508,43.7163934 C146.47459,43.7163934 147.369672,43.7163934 148.595902,44.942623 C150.805738,47.1491803 149.530328,49.1622951 148.595902,50.1393443 L125.648361,73.0901639 C125.635246,73.1032787 124.307377,74.3163934 122.864754,74.3163934 C122.569672,74.3163934 121.67459,74.3163934 120.448361,73.0901639 C118.241803,70.8836066 119.517213,68.8704918 120.448361,67.8934426 L120.448361,67.8934426 Z M96.2090164,174.62459 C86.245082,184.588525 73.1532787,190.106557 59.3434426,190.162295 C45.3270492,190.218033 32.2352459,184.7 22.1565574,174.62459 C1.39918033,153.860656 1.39918033,121.332787 22.1565574,100.572131 L72.1991803,50.5065574 L107.612295,85.9229508 L107.615574,85.9262295 L107.618852,85.9262295 L146.251639,124.559016 L96.2090164,174.62459 L96.2090164,174.62459 Z" id="mouse" fill="#13487D" transform="translate(100.000000, 100.000000) rotate(-90.000000) translate(-100.000000, -100.000000) "></path>
        </g>
    </g>
</svg>