<?xml version="1.0" encoding="UTF-8" standalone="no"?>
<svg width="200px" height="200px" viewBox="0 0 200 200" version="1.1" xmlns="http://www.w3.org/2000/svg" xmlns:xlink="http://www.w3.org/1999/xlink">
    <!-- Generator: Sketch 3.8.3 (29802) - http://www.bohemiancoding.com/sketch -->
    <title>Quality</title>
    <desc>Created with Sketch.</desc>
    <defs></defs>
    <g id="Page-1" stroke="none" stroke-width="1" fill="none" fill-rule="evenodd">
        <g id="Quality">
            <path d="M140,80.0026668 C140,46.9182306 113.083333,20.0006667 80,20.0006667 C46.9166667,20.0006667 20,46.9182306 20,80.0026668 C20,113.087103 46.9166667,140.004667 80,140.004667 C113.083333,140.004667 140,113.087103 140,80.0026668 M146.666667,80.0026668 C146.666667,116.763892 116.76,146.671556 80,146.671556 C43.24,146.671556 13.3333333,116.763892 13.3333333,80.0026668 C13.3333333,43.2414414 43.24,13.3337778 80,13.3337778 C116.76,13.3337778 146.666667,43.2414414 146.666667,80.0026668 M153.333333,80.0026668 C153.333333,39.5646522 120.436667,6.6668889 80,6.6668889 C39.5633333,6.6668889 6.66666667,39.5646522 6.66666667,80.0026668 C6.66666667,120.440681 39.5633333,153.338445 80,153.338445 C120.436667,153.338445 153.333333,120.440681 153.333333,80.0026668 M80,160.005334 C35.89,160.005334 0,124.114137 0,80.0026668 C0,35.8911964 35.89,0 80,0 C124.11,0 160,35.8911964 160,80.0026668 C160,124.114137 124.11,160.005334 80,160.005334 M150.903333,132.054402 C149.603333,133.354445 149.603333,135.467849 150.903333,136.767892 L157.976667,143.841461 C158.626667,144.494816 159.48,144.818161 160.333333,144.818161 C161.183333,144.818161 162.036667,144.494816 162.69,143.841461 C163.99,142.541418 163.99,140.431348 162.69,139.127971 L155.62,132.054402 C154.316667,130.754358 152.206667,130.754358 150.903333,132.054402 M200,183.339445 C200,187.792926 198.263333,191.976399 195.116667,195.126504 C191.87,198.373279 187.596667,200 183.33,200 C179.063333,200 174.796667,198.376613 171.55,195.126504 L132.05,155.628521 C130.75,154.325144 130.75,152.215074 132.05,150.911697 C133.353333,149.611654 135.463333,149.611654 136.763333,150.911697 L176.263333,190.413014 C180.166667,194.313144 186.506667,194.306477 190.403333,190.40968 C192.29,188.522951 193.333333,186.009534 193.333333,183.339445 C193.333333,180.669356 192.29,178.159272 190.403333,176.269209 L169.406667,155.275176 L162.363333,162.355412 C161.066667,163.665456 158.96,163.668789 157.65,162.368746 C156.343333,161.068702 156.336667,158.961965 157.636667,157.655255 L167.036667,148.201607 C167.663333,147.574919 168.513333,147.221574 169.396667,147.221574 L169.4,147.221574 C170.286667,147.221574 171.133333,147.571586 171.756667,148.198273 L195.116667,171.555719 C198.263333,174.70249 200,178.889296 200,183.339445" id="keyword-search" fill="#4A4A4A"></path>
            <path d="M116.666667,86.6695557 L76.6666667,86.6695557 C74.8233333,86.6695557 73.3333333,88.1629388 73.3333333,90.0030001 C73.3333333,91.8430614 74.8233333,93.3364445 76.6666667,93.3364445 L116.666667,93.3364445 C118.51,93.3364445 120,91.8430614 120,90.0030001 C120,88.1629388 118.51,86.6695557 116.666667,86.6695557" id="Path" fill="#1E90FF"></path>
            <path d="M116.666667,66.668889 L103.333333,66.668889 C101.49,66.668889 100,68.1622721 100,70.0023334 C100,71.8423947 101.49,73.3357779 103.333333,73.3357779 L116.666667,73.3357779 C118.51,73.3357779 120,71.8423947 120,70.0023334 C120,68.1622721 118.51,66.668889 116.666667,66.668889" id="Path" fill="#1E90FF"></path>
            <path d="M103.333333,106.670222 L90,106.670222 C88.1566667,106.670222 86.6666667,108.163605 86.6666667,110.003667 C86.6666667,111.843728 88.1566667,113.337111 90,113.337111 L103.333333,113.337111 C105.176667,113.337111 106.666667,111.843728 106.666667,110.003667 C106.666667,108.163605 105.176667,106.670222 103.333333,106.670222" id="Path" fill="#1E90FF"></path>
            <path d="M76.6666667,106.670222 L50,106.670222 C48.1566667,106.670222 46.6666667,108.163605 46.6666667,110.003667 C46.6666667,111.843728 48.1566667,113.337111 50,113.337111 L76.6666667,113.337111 C78.51,113.337111 80,111.843728 80,110.003667 C80,108.163605 78.51,106.670222 76.6666667,106.670222" id="Path" fill="#1E90FF"></path>
            <path d="M66.6666667,90.0030001 C66.6666667,88.1629388 65.1766667,86.6695557 63.3333333,86.6695557 L43.3333333,86.6695557 C41.49,86.6695557 40,88.1629388 40,90.0030001 C40,91.8430614 41.49,93.3364445 43.3333333,93.3364445 L63.3333333,93.3364445 C65.1766667,93.3364445 66.6666667,91.8430614 66.6666667,90.0030001" id="Path" fill="#1E90FF"></path>
            <path d="M43.3333333,73.3357779 L90,73.3357779 C91.8433333,73.3357779 93.3333333,71.8423947 93.3333333,70.0023334 C93.3333333,68.1622721 91.8433333,66.668889 90,66.668889 L43.3333333,66.668889 C41.49,66.668889 40,68.1622721 40,70.0023334 C40,71.8423947 41.49,73.3357779 43.3333333,73.3357779" id="Path" fill="#1E90FF"></path>
            <path d="M56.6666667,53.3351112 L96.6666667,53.3351112 C98.51,53.3351112 100,51.8417281 100,50.0016667 C100,48.1616054 98.51,46.6682223 96.6666667,46.6682223 L56.6666667,46.6682223 C54.8233333,46.6682223 53.3333333,48.1616054 53.3333333,50.0016667 C53.3333333,51.8417281 54.8233333,53.3351112 56.6666667,53.3351112" id="Path" fill="#1E90FF"></path>
        </g>
    </g>
</svg>