<?xml version="1.0" encoding="utf-8"?>
<!-- Generator: Adobe Illustrator 21.1.0, SVG Export Plug-In . SVG Version: 6.00 Build 0)  -->
<svg version="1.1" id="Layer_1" xmlns="http://www.w3.org/2000/svg" xmlns:xlink="http://www.w3.org/1999/xlink" x="0px" y="0px"
	 viewBox="0 0 200 200" style="enable-background:new 0 0 200 200;" xml:space="preserve">
<style type="text/css">
	.st0{fill:#1E90FF;}
	.st1{fill:#414141;}
</style>
<g>
	<path class="st0" d="M55.9,183.4H10.7c0.7-21.7,15.8-29.3,28.9-31.8c2.7-0.5,4.6-3,4.3-5.7c-0.2-2.7-2.5-4.8-5.2-4.8
		c-6.7-0.1-11-1.6-13.7-3.4c1.4-0.7,2.8-1.8,4.2-3.3c6-6.4,8.5-18.5,7.5-36.9c-0.3-6.1,1-10.8,4-13.9c4.5-4.7,11.7-5,13.4-5
		c0,0,0,0,0,0c0.2,0,0.6,0,0.7,0c1.4,0,8.7,0.2,13.2,5c3,3.1,4.3,7.8,4,13.9c-1,18.4,1.5,30.5,7.5,36.9c0.8,0.9,1.7,1.6,2.5,2.2
		c4.2-2.7,8.9-4.9,14.1-6.7c-0.6-0.4-1.4-0.7-2.2-0.9c-0.4-0.1-1-0.1-1.8-0.1c-1.6,0-3.3,0-4.9-1.8c-2.2-2.3-5.7-9.2-4.6-29.1
		c0.5-9.1-1.8-16.5-6.9-21.8c-7.3-7.7-17.9-8.3-20.9-8.3c-0.4,0-0.6,0-1,0c-3.1,0-13.6,0.6-20.9,8.3c-5,5.3-7.4,12.6-6.9,21.8
		c1.1,19.9-2.5,26.7-4.6,29.1c-1.7,1.8-3.3,1.8-4.9,1.8c-0.7,0-1.3,0-1.8,0.1c-1.5,0.2-2.8,1.1-3.6,2.3c-0.8,1.3-1.1,2.8-0.7,4.3
		c0.1,0.4,2,7.2,10,11.8C9.3,153.7-1.4,165.9,0.1,189c0.2,2.8,2.5,5,5.3,5H56C55.7,190.3,55.7,186.8,55.9,183.4z"/>
	<path class="st1" d="M153.1,134.1c-2.7-1-4.4-2.2-4.8-3.4c-0.3-0.9,0-2.3,1-3.9c0.2-0.2,0.5-0.5,0.8-0.8c8.7-9.2,16.3-35.1,9-52.2
		c-3.3-7.7-10.9-16.9-28.3-16.9c-17.3,0-24.8,9.1-28,16.7c-7.2,17.1,0.7,43.2,9.7,52.5c0.2,0.2,0.4,0.4,0.7,0.7c1,1.7,1.4,3.1,1.1,4
		c-0.4,1.2-2.3,2.4-5,3.4c-31.9,6.6-48,27.9-45.4,60.1c0.2,2.8,2.5,4.9,5.3,4.9h125.3c2.8,0,5.1-2.2,5.3-5
		C202,161.9,185.4,140.5,153.1,134.1z M74.2,188.5c-0.4-24.2,12.3-38.9,37.8-44c0.5-0.1,1-0.3,1.4-0.5c5.8-2.2,9.4-5.5,10.9-9.8
		c1-2.9,1.4-7.7-2.5-13.7c-0.2-0.4-0.5-0.7-0.8-1l-0.3-0.3c-0.2-0.2-0.5-0.4-0.6-0.6c-5.9-6.1-13.2-27.6-7.5-40.8
		c2.9-6.9,8.9-10.2,18.2-10.2c9.5,0,15.5,3.4,18.5,10.4c5.7,13.3-1.2,34.6-6.8,40.5l-1,1c-0.4,0.3-0.7,0.7-0.9,1.1
		c-3.8,6-3.4,10.7-2.4,13.7c1.6,4.5,5.5,7.9,11.7,10.1c0.3,0.1,0.5,0.2,0.8,0.2c25.7,5,38.7,19.8,38.7,44H74.2z"/>
</g>
</svg>
