<?xml version="1.0" encoding="UTF-8" standalone="no"?>
<svg width="200px" height="200px" viewBox="0 0 200 200" version="1.1" xmlns="http://www.w3.org/2000/svg" xmlns:xlink="http://www.w3.org/1999/xlink">
    <!-- Generator: Sketch 3.8.3 (29802) - http://www.bohemiancoding.com/sketch -->
    <title>Leader</title>
    <desc>Created with Sketch.</desc>
    <defs></defs>
    <g id="Page-1" stroke="none" stroke-width="1" fill="none" fill-rule="evenodd">
        <g id="Leader">
            <g id="Group" transform="translate(2.000000, 8.000000)">
                <path d="M16.0969597,62.2819672 C16.1953203,62.2918033 16.2969597,62.295082 16.3953203,62.295082 C18.0740088,62.295082 19.503517,61.0163934 19.6576154,59.3114754 L22.9363039,23.2557377 C23.6674515,15.452459 34.1559761,6.55737705 42.6215498,6.55737705 L49.1789269,6.55737705 C57.8084351,6.55737705 68.293681,15.4163934 68.8608941,23.2032787 L69.3658121,29.7606557 C69.5067957,31.5672131 71.0772875,32.9278689 72.8871236,32.7770492 C74.693681,32.6393443 76.0445006,31.0622951 75.903517,29.2557377 L75.4018777,22.7114754 C74.5231892,10.695082 60.0084351,0 49.1789269,0 L42.6215498,0 C30.6871236,0 17.4576154,11.4295082 16.4051564,22.6557377 L13.1264679,58.7213115 C12.9625334,60.5245902 14.2904023,62.1180328 16.0969597,62.2819672 L16.0969597,62.2819672 Z M62.293681,29.5081967 C64.103517,29.5081967 65.5723695,30.9770492 65.5723695,32.7868852 L65.5723695,45.9016393 C65.5723695,56.852459 58.0871236,72.1311475 45.9002384,72.1311475 C33.7133531,72.1311475 26.2281072,56.852459 26.2281072,45.9016393 L26.2281072,32.7868852 C26.2281072,30.9770492 27.6969597,29.5081967 29.5067957,29.5081967 C29.7887629,29.504918 37.0477793,29.3081967 39.5100744,21.9147541 C39.9592547,20.5737705 41.2084351,19.6721311 42.6215498,19.6721311 C44.0346646,19.6721311 45.2838449,20.5737705 45.7330252,21.9147541 C48.1953203,29.3016393 62.1526974,29.5081967 62.293681,29.5081967 L62.293681,29.5081967 Z M59.0149924,35.8622951 C54.7854843,35.4131148 47.4641728,33.9770492 42.8707302,29.3836066 C39.9592547,33.1081967 35.998599,34.9377049 32.7854843,35.6655738 L32.7854843,45.9016393 C32.7854843,54.8131148 38.6346646,65.5737705 45.9002384,65.5737705 C53.1658121,65.5737705 59.0149924,54.8131148 59.0149924,45.9016393 L59.0149924,35.8622951 L59.0149924,35.8622951 Z M123.837943,32.7770492 C125.598599,32.904918 127.218271,31.5639344 127.355976,29.7606557 L127.854337,23.2557377 C128.585484,15.452459 139.07073,6.55737705 147.539583,6.55737705 L154.09696,6.55737705 C162.726468,6.55737705 173.211714,15.4163934 173.782206,23.2459016 L177.060894,59.3114754 C177.218271,61.0163934 178.644501,62.295082 180.323189,62.295082 C180.42155,62.295082 180.523189,62.2918033 180.624829,62.2819672 C182.428107,62.1180328 183.755976,60.5245902 183.592042,58.7213115 L180.316632,22.7114754 C179.441222,10.695082 164.926468,0 154.09696,0 L147.539583,0 C135.605156,0 122.375648,11.4295082 121.31991,22.6983607 L120.818271,29.2557377 C120.680566,31.0622951 122.031386,32.6393443 123.837943,32.7770492 L123.837943,32.7770492 Z M167.211714,29.5081967 C169.024829,29.5081967 170.490402,30.9770492 170.490402,32.7868852 L170.490402,45.9016393 C170.490402,56.852459 163.008435,72.1311475 150.818271,72.1311475 C138.628107,72.1311475 131.14614,56.852459 131.14614,45.9016393 L131.14614,32.7868852 C131.14614,30.9770492 132.611714,29.5081967 134.424829,29.5081967 C134.710074,29.504918 141.965812,29.3081967 144.431386,21.9147541 C144.874009,20.5737705 146.126468,19.6721311 147.539583,19.6721311 C148.952697,19.6721311 150.201878,20.5737705 150.647779,21.9147541 C153.113353,29.3016393 167.07073,29.5081967 167.211714,29.5081967 L167.211714,29.5081967 Z M163.933025,35.8622951 C159.706796,35.4131148 152.382206,33.9770492 147.788763,29.3836066 C144.880566,33.1081967 140.913353,34.9377049 137.703517,35.6655738 L137.703517,45.9016393 C137.703517,54.8131148 143.552697,65.5737705 150.818271,65.5737705 C158.083845,65.5737705 163.933025,54.8131148 163.933025,45.9016393 L163.933025,35.8622951 L163.933025,35.8622951 Z M16.3920416,104.918033 C14.5822056,104.918033 13.1133531,106.386885 13.1133531,108.196721 L13.1133531,147.540984 C13.1133531,149.35082 14.5822056,150.819672 16.3920416,150.819672 C18.2018777,150.819672 19.6707302,149.35082 19.6707302,147.540984 L19.6707302,108.196721 C19.6707302,106.386885 18.2018777,104.918033 16.3920416,104.918033 L16.3920416,104.918033 Z M49.1789269,108.196721 L49.1789269,98.0983607 C53.4182711,97.452459 56.9690908,95.5409836 59.7428613,92.3442623 C60.9264679,90.9737705 60.7789269,88.904918 59.4117138,87.7180328 C58.041222,86.5311475 55.9690908,86.6819672 54.7854843,88.0491803 C52.5953203,90.5770492 49.6904023,91.8032787 45.9002384,91.8032787 C33.0182711,91.8032787 32.7887629,76.1114754 32.7854843,75.452459 C32.7822056,73.6032787 31.1133531,72.1770492 29.398599,72.1737705 C13.9395826,72.1737705 5.36581212,77.8295082 0.890402286,82.5836066 C-0.348941976,83.9016393 -0.286646894,85.9770492 1.0281072,87.2163934 C2.34613999,88.452459 4.42154983,88.3967213 5.66417278,87.0786885 C10.3100744,82.1442623 17.4543367,79.3114754 26.4477793,78.8098361 C27.3854843,86.2786885 31.5559761,96.4032787 42.6215498,98.0918033 L42.6215498,108.196721 C42.6215498,110.006557 44.0904023,111.47541 45.9002384,111.47541 C47.7100744,111.47541 49.1789269,110.006557 49.1789269,108.196721 L49.1789269,108.196721 Z M195.834665,82.5836066 C191.359255,77.8295082 182.778927,72.1704918 167.303517,72.1704918 C165.477288,72.2098361 163.942861,73.6065574 163.933025,75.4393443 C163.929747,76.1081967 163.703517,91.8032787 150.818271,91.8032787 C146.972369,91.8032787 144.034665,90.5377049 141.841222,87.9344262 C140.67073,86.5508197 138.601878,86.3737705 137.218271,87.5409836 C135.837943,88.7114754 135.660894,90.7770492 136.824829,92.1606557 C139.569091,95.4163934 143.237943,97.4131148 147.539583,98.0885246 L147.539583,108.196721 C147.539583,110.006557 149.005156,111.47541 150.818271,111.47541 C152.631386,111.47541 154.09696,110.006557 154.09696,108.196721 L154.09696,98.0918033 C165.162533,96.4032787 169.329747,86.2786885 170.27073,78.8098361 C179.27073,79.3114754 186.414992,82.1442623 191.057615,87.0786885 C192.303517,88.3967213 194.378927,88.452459 195.693681,87.2163934 C197.014992,85.9770492 197.074009,83.9016393 195.834665,82.5836066 L195.834665,82.5836066 Z M180.326468,104.918033 C178.513353,104.918033 177.047779,106.386885 177.047779,108.196721 L177.047779,147.540984 C177.047779,149.35082 178.513353,150.819672 180.326468,150.819672 C182.139583,150.819672 183.605156,149.35082 183.605156,147.540984 L183.605156,108.196721 C183.605156,106.386885 182.139583,104.918033 180.326468,104.918033 L180.326468,104.918033 Z" id="team-women" fill="#4A4A4A"></path>
                <path d="M142.778927,114.760656 C147.962533,119.934426 150.818271,126.918033 150.818271,134.42623 L150.818271,173.770492 C150.818271,175.580328 149.352697,177.04918 147.539583,177.04918 C145.726468,177.04918 144.260894,175.580328 144.260894,173.770492 L144.260894,134.42623 C144.260894,128.672131 142.090402,123.337705 138.14614,119.4 C133.493681,114.754098 126.506796,112.081967 117.811714,111.596721 C116.874009,119.065574 112.703517,129.190164 101.637943,130.878689 L101.637943,147.540984 C101.637943,149.35082 100.169091,150.819672 98.3592547,150.819672 C96.5494187,150.819672 95.0805662,149.35082 95.0805662,147.540984 L95.0805662,130.878689 C84.0149924,129.190164 79.8445006,119.065574 78.9067957,111.6 C70.2117138,112.081967 63.2248285,114.754098 58.5723695,119.4 C54.6313859,123.334426 52.4576154,128.672131 52.4576154,134.42623 L52.4576154,173.770492 C52.4576154,175.580328 50.9887629,177.04918 49.1789269,177.04918 C47.3690908,177.04918 45.9002384,175.580328 45.9002384,173.770492 L45.9002384,134.42623 C45.9002384,126.918033 48.7559761,119.934426 53.9428613,114.757377 C60.3854843,108.327869 70.0871236,105.091803 81.9723695,104.960656 C83.7789269,104.963934 85.2445006,106.429508 85.2445006,108.239344 C85.2477793,108.898361 85.4772875,124.590164 98.3592547,124.590164 C111.244501,124.590164 111.47073,108.895082 111.474009,108.22623 C111.483845,106.390164 113.028107,104.967213 114.851058,104.957377 C126.700238,104.957377 136.352697,108.344262 142.778927,114.760656 L142.778927,114.760656 Z" id="Path" fill="#1E90FF"></path>
                <path d="M68.851058,137.704918 C67.041222,137.704918 65.5723695,139.17377 65.5723695,140.983607 L65.5723695,180.327869 C65.5723695,182.137705 67.041222,183.606557 68.851058,183.606557 C70.6608941,183.606557 72.1297465,182.137705 72.1297465,180.327869 L72.1297465,140.983607 C72.1297465,139.17377 70.6608941,137.704918 68.851058,137.704918 L68.851058,137.704918 Z" id="Path" fill="#1E90FF"></path>
                <path d="M127.867451,137.704918 C126.054337,137.704918 124.588763,139.17377 124.588763,140.983607 L124.588763,180.327869 C124.588763,182.137705 126.054337,183.606557 127.867451,183.606557 C129.680566,183.606557 131.14614,182.137705 131.14614,180.327869 L131.14614,140.983607 C131.14614,139.17377 129.680566,137.704918 127.867451,137.704918 L127.867451,137.704918 Z" id="Path" fill="#1E90FF"></path>
                <path d="M65.5822056,98.1081967 C65.441222,99.9147541 66.7953203,101.491803 68.598599,101.629508 C70.3592547,101.770492 71.9822056,100.416393 72.1199105,98.6131148 L75.3953203,56.042623 C76.1264679,48.2393443 86.6117138,39.3442623 95.0805662,39.3442623 L101.637943,39.3442623 C110.267451,39.3442623 120.752697,48.2032787 121.31991,55.9901639 L124.598599,98.6131148 C124.729747,100.331148 126.165812,101.639344 127.864173,101.639344 C127.94614,101.639344 128.034665,101.636066 128.11991,101.629508 C129.923189,101.491803 131.274009,99.9147541 131.136304,98.1081967 L127.857615,55.4983607 C126.982206,43.4819672 112.467451,32.7868852 101.637943,32.7868852 L95.0805662,32.7868852 C83.14614,32.7868852 69.9166318,44.2163934 68.8608941,55.4852459 L65.5822056,98.1081967 L65.5822056,98.1081967 Z" id="Path" fill="#1E90FF"></path>
                <path d="M114.752697,62.295082 C116.565812,62.295082 118.031386,63.7639344 118.031386,65.5737705 L118.031386,78.6885246 C118.031386,89.6393443 110.549419,104.918033 98.3592547,104.918033 C86.1723695,104.918033 78.6871236,89.6393443 78.6871236,78.6885246 L78.6871236,65.5737705 C78.6871236,63.7639344 80.1559761,62.295082 81.9658121,62.295082 C82.2477793,62.2918033 89.5067957,62.095082 91.9690908,54.7016393 C92.4149924,53.3606557 93.6674515,52.4590164 95.0805662,52.4590164 C96.493681,52.4590164 97.74614,53.3606557 98.1920416,54.7016393 C100.654337,62.0885246 114.611714,62.295082 114.752697,62.295082 Z M111.474009,68.6491803 C107.247779,68.2 99.9231892,66.7639344 95.3297465,62.1704918 C92.4182711,65.895082 88.4576154,67.7245902 85.2445006,68.452459 L85.2445006,78.6885246 C85.2445006,87.6 91.093681,98.3606557 98.3592547,98.3606557 C105.624829,98.3606557 111.474009,87.6 111.474009,78.6885246 L111.474009,68.6491803 Z" id="Combined-Shape" fill="#1E90FF"></path>
            </g>
        </g>
    </g>
</svg>