<?xml version="1.0" encoding="utf-8"?>
<!-- Generator: Adobe Illustrator 21.1.0, SVG Export Plug-In . SVG Version: 6.00 Build 0)  -->
<svg version="1.1" id="Layer_1" xmlns="http://www.w3.org/2000/svg" xmlns:xlink="http://www.w3.org/1999/xlink" x="0px" y="0px"
	 viewBox="0 0 200 200" style="enable-background:new 0 0 200 200;" xml:space="preserve">
<style type="text/css">
	.st0{fill:#1E90FF;}
	.st1{fill:#4C4848;}
</style>
<g>
	<path class="st0" d="M186.6,57.7c0.5,2.5,0.8,5.1,0.8,7.8v5.6c2.4,3.7,3.8,8,3.8,12.7v60c0,13-10.6,23.6-23.6,23.6h-6.1
		c-1.4,0-2.6,0.6-3.5,1.7c-0.8,1.1-1.1,2.5-0.8,3.8c0.1,0.2,1.4,5,5.3,12.1c0.6,1,1.2,2,1.8,2.9c-5.2-1.4-11.2-3.3-16.8-5.8
		c-13-5.7-20.8-13.4-20.9-13.5c-0.8-0.8-1.9-1.3-3.1-1.3H80.1c-4,2.8-9.2,6-15.5,8.8H122c3,2.7,10.7,9,22.1,14
		c14.3,6.3,31.1,9.2,31.8,9.3c0.2,0,0.5,0.1,0.7,0.1c1.7,0,3.2-1,4-2.5c0.8-1.8,0.4-3.9-1.1-5.2c-0.1-0.1-6-5.3-9.3-11.2
		c-1-1.7-1.7-3.2-2.3-4.6c17.7-0.1,32.1-14.6,32.1-32.3v-60C200,73,194.7,63.5,186.6,57.7z"/>
	<path class="st1" d="M145.2,155.9c18.2,0,33-14.8,33-33V63c0-18.2-14.8-33-33-33H33.7c-18.2,0-33,14.8-33,33v60
		c0,17.8,14.1,32.3,31.7,32.9c-0.5,1.1-1.2,2.3-1.9,3.7c-0.4,0.7-0.8,1.3-1.2,2c-0.1,0-0.1,0-0.2-0.1c0,0.1,0.1,0.1,0.1,0.2
		c-3.3,4.8-7.9,8.9-7.9,8.9c-1.7,1.5-2.2,3.9-1.2,5.9c0.8,1.8,2.6,2.9,4.5,2.9c0.3,0,0.6,0,0.8-0.1c0.7-0.1,17.6-3,32-9.4
		c11.2-5,19-11.2,22.1-14L145.2,155.9L145.2,155.9z M74.1,147.3c-0.1,0.1-7.8,7.7-20.7,13.3c-4.9,2.2-10.3,3.9-15.1,5.3
		c0.3-0.5,0.6-1,0.9-1.5c4-7.1,5.3-12,5.4-12.3c0.4-1.5,0.1-3.1-0.9-4.3c-0.9-1.2-2.4-2-4-2h-6.1c-12.7,0-22.9-10.3-22.9-22.9V63
		c0-12.7,10.3-23,23-23h111.5c12.7,0,22.9,10.3,22.9,22.9v60c0,12.7-10.3,22.9-22.9,22.9H77.6C76.3,145.9,75,146.4,74.1,147.3z"/>
	<circle class="st0" cx="55.2" cy="92.7" r="8.8"/>
	<circle class="st0" cx="90.5" cy="92.7" r="8.8"/>
	<circle class="st0" cx="125.9" cy="92.7" r="8.8"/>
</g>
</svg>
