<?xml version="1.0" encoding="UTF-8" standalone="no"?>
<svg width="200px" height="200px" viewBox="0 0 200 200" version="1.1" xmlns="http://www.w3.org/2000/svg" xmlns:xlink="http://www.w3.org/1999/xlink">
    <!-- Generator: Sketch 3.8.3 (29802) - http://www.bohemiancoding.com/sketch -->
    <title>Strategy</title>
    <desc>Created with Sketch.</desc>
    <defs></defs>
    <g id="Page-1" stroke="none" stroke-width="1" fill="none" fill-rule="evenodd">
        <g id="Strategy">
            <path d="M200,10 L200,23.3333333 C200,25.1733333 198.506667,26.6666667 196.666667,26.6666667 L193.333333,26.6666667 L193.333333,103.333333 C193.333333,105.173333 191.84,106.666667 190,106.666667 C188.16,106.666667 186.666667,105.173333 186.666667,103.333333 L186.666667,23.3333333 C186.666667,21.4933333 188.16,20 190,20 L193.333333,20 L193.333333,13.3333333 L6.66666667,13.3333333 L6.66666667,20 L176.666667,20 C178.506667,20 180,21.4933333 180,23.3333333 C180,25.1733333 178.506667,26.6666667 176.666667,26.6666667 L3.33333333,26.6666667 C1.49333333,26.6666667 0,25.1733333 0,23.3333333 L0,10 C0,8.16 1.49333333,6.66666667 3.33333333,6.66666667 L96.6666667,6.66666667 L96.6666667,3.33333333 C96.6666667,1.49333333 98.16,0 100,0 C101.84,0 103.333333,1.49333333 103.333333,3.33333333 L103.333333,6.66666667 L196.666667,6.66666667 C198.506667,6.66666667 200,8.16 200,10 L200,10 Z M163.55,106.71 C161.81,106.706667 160.266667,107.87 160.03,109.59 L150.03,182.883333 C149.783333,184.706667 151.056667,186.386667 152.883333,186.636667 C153.036667,186.656667 153.186667,186.666667 153.34,186.666667 C154.98,186.666667 156.406667,185.456667 156.636667,183.783333 L166.24,113.406667 C177.75,113.696667 185.623333,115.883333 189.663333,119.916667 C192.133333,122.38 193.333333,125.68 193.333333,130 L193.333333,183.333333 C193.333333,185.173333 194.826667,186.666667 196.666667,186.666667 C198.506667,186.666667 200,185.173333 200,183.333333 L200,130 C200,123.903333 198.106667,118.923333 194.373333,115.2 C188.653333,109.486667 178.57,106.71 163.55,106.71 L163.55,106.71 Z M133.303333,109.55 L143.303333,182.883333 C143.55,184.706667 142.273333,186.386667 140.45,186.636667 C138.633333,186.893333 136.943333,185.61 136.696667,183.783333 L127.09,113.333333 L73.3333333,113.333333 L73.3333333,126.666667 L110,126.666667 C111.713333,126.666667 113.146667,127.963333 113.316667,129.666667 L119.983333,196.333333 C120.166667,198.166667 118.83,199.8 117,199.983333 C116.886667,199.993333 116.773333,200 116.663333,200 C114.97,200 113.523333,198.716667 113.35,197 L106.983333,133.333333 L63.3333333,133.333333 C47.7966667,133.333333 40,118.373333 40,110 C40,108.16 41.4933333,106.666667 43.3333333,106.666667 L130,106.666667 C131.666667,106.666667 133.076667,107.9 133.303333,109.55 L133.303333,109.55 Z M66.6666667,113.333333 L47.2433333,113.333333 C48.8733333,118.783333 54.0066667,126.666667 63.3333333,126.666667 L66.6666667,126.666667 L66.6666667,113.333333 L66.6666667,113.333333 Z M173.333333,53.3333333 L173.333333,54.23 C175.323333,55.3833333 176.666667,57.5366667 176.666667,60 L176.666667,66.6666667 C176.666667,69.18 175.266667,71.3766667 173.203333,72.51 C172.57,78.9166667 169.783333,84.5566667 169.65,84.8233333 C166.626667,90.8666667 162.06,100 146.666667,100 C131.273333,100 126.706667,90.8666667 123.686667,84.8233333 C123.55,84.5566667 120.763333,78.9166667 120.13,72.51 C118.066667,71.3766667 116.666667,69.18 116.666667,66.6666667 L116.666667,60 C116.666667,57.5366667 118.01,55.3833333 120,54.23 L120,53.3333333 C120,42.3033333 128.97,33.3333333 140,33.3333333 L153.333333,33.3333333 C164.363333,33.3333333 173.333333,42.3033333 173.333333,53.3333333 L173.333333,53.3333333 Z M170,60 C168.16,60 166.666667,58.5066667 166.666667,56.6666667 L166.666667,53.3333333 C166.666667,45.98 160.686667,40 153.333333,40 L140,40 C132.646667,40 126.666667,45.98 126.666667,53.3333333 L126.666667,56.6666667 C126.666667,58.5066667 125.173333,60 123.333333,60 L123.333333,66.6666667 C125.173333,66.6666667 126.666667,68.16 126.666667,70 C126.666667,75.7666667 129.62,81.7866667 129.65,81.8466667 C133.12,88.7833333 136.18,93.3333333 146.666667,93.3333333 C157.153333,93.3333333 160.213333,88.7833333 163.683333,81.8433333 C163.713333,81.7866667 166.666667,75.7666667 166.666667,70 C166.666667,68.16 168.16,66.6666667 170,66.6666667 L170,60 L170,60 Z M156.666667,60 L153.333333,60 C151.493333,60 150,61.4933333 150,63.3333333 C150,65.1733333 151.493333,66.6666667 153.333333,66.6666667 L156.666667,66.6666667 C158.506667,66.6666667 160,65.1733333 160,63.3333333 C160,61.4933333 158.506667,60 156.666667,60 L156.666667,60 Z M140,60 L136.666667,60 C134.826667,60 133.333333,61.4933333 133.333333,63.3333333 C133.333333,65.1733333 134.826667,66.6666667 136.666667,66.6666667 L140,66.6666667 C141.84,66.6666667 143.333333,65.1733333 143.333333,63.3333333 C143.333333,61.4933333 141.84,60 140,60 L140,60 Z M176.666667,146.666667 C174.826667,146.666667 173.333333,148.16 173.333333,150 L173.333333,196.666667 C173.333333,198.506667 174.826667,200 176.666667,200 C178.506667,200 180,198.506667 180,196.666667 L180,150 C180,148.16 178.506667,146.666667 176.666667,146.666667 L176.666667,146.666667 Z M23.3333333,146.666667 C17.6333333,146.666667 13.3333333,142.366667 13.3333333,136.666667 L13.3333333,36.6666667 C13.3333333,34.8266667 11.84,33.3333333 10,33.3333333 C8.16,33.3333333 6.66666667,34.8266667 6.66666667,36.6666667 L6.66666667,136.666667 C6.66666667,146.013333 13.9866667,153.333333 23.3333333,153.333333 L100,153.333333 C101.84,153.333333 103.333333,151.84 103.333333,150 C103.333333,148.16 101.84,146.666667 100,146.666667 L23.3333333,146.666667 Z" id="presentation-man" fill="#4A4A4A"></path>
            <path d="M43.3333333,53.3333333 L70,53.3333333 C71.84,53.3333333 73.3333333,51.84 73.3333333,50 C73.3333333,48.16 71.84,46.6666667 70,46.6666667 L43.3333333,46.6666667 C41.4933333,46.6666667 40,48.16 40,50 C40,51.84 41.4933333,53.3333333 43.3333333,53.3333333 L43.3333333,53.3333333 Z" id="Path" fill="#1E90FF"></path>
            <path d="M43.3333333,73.3333333 L103.333333,73.3333333 C105.173333,73.3333333 106.666667,71.84 106.666667,70 C106.666667,68.16 105.173333,66.6666667 103.333333,66.6666667 L43.3333333,66.6666667 C41.4933333,66.6666667 40,68.16 40,70 C40,71.84 41.4933333,73.3333333 43.3333333,73.3333333 L43.3333333,73.3333333 Z" id="Path" fill="#1E90FF"></path>
            <path d="M96.6666667,53.3333333 C98.5066667,53.3333333 100,51.84 100,50 C100,48.16 98.5066667,46.6666667 96.6666667,46.6666667 L83.3333333,46.6666667 C81.4933333,46.6666667 80,48.16 80,50 C80,51.84 81.4933333,53.3333333 83.3333333,53.3333333 L96.6666667,53.3333333 L96.6666667,53.3333333 Z" id="Path" fill="#1E90FF"></path>
            <path d="M43.3333333,93.3333333 L53.3333333,93.3333333 C55.1733333,93.3333333 56.6666667,91.84 56.6666667,90 C56.6666667,88.16 55.1733333,86.6666667 53.3333333,86.6666667 L43.3333333,86.6666667 C41.4933333,86.6666667 40,88.16 40,90 C40,91.84 41.4933333,93.3333333 43.3333333,93.3333333 L43.3333333,93.3333333 Z" id="Path" fill="#1E90FF"></path>
            <path d="M103.333333,86.6666667 L70,86.6666667 C68.16,86.6666667 66.6666667,88.16 66.6666667,90 C66.6666667,91.84 68.16,93.3333333 70,93.3333333 L103.333333,93.3333333 C105.173333,93.3333333 106.666667,91.84 106.666667,90 C106.666667,88.16 105.173333,86.6666667 103.333333,86.6666667 L103.333333,86.6666667 Z" id="Path" fill="#1E90FF"></path>
            <path d="M153.333333,113.333333 C153.333333,109.656667 150.343333,106.666667 146.666667,106.666667 C142.99,106.666667 140,109.656667 140,113.333333 C140,115.79 141.35,117.916667 143.333333,119.073333 L143.333333,143.333333 C143.333333,145.173333 144.826667,146.666667 146.666667,146.666667 C148.506667,146.666667 150,145.173333 150,143.333333 L150,119.073333 C151.983333,117.916667 153.333333,115.79 153.333333,113.333333 L153.333333,113.333333 Z" id="Path" fill="#1E90FF"></path>
        </g>
    </g>
</svg>